PathFileType	4	(x/y/z)	S05_M20_T02
DataRate	CameraRate	NumFrames	NumMarkers	Units	OrigDataRate	OrigDataStartFrame	OrigNumFrames
240	240	4	50	mm	240	69	546
Frame#	Time	Sternum			R.Acromium			L.Acromium			Top.Head			R.ASIS			L.ASIS			R.PSIS			L.PSIS			R.Great.Tro			L.Great.Tro			R.Iliac.Crest			L.Iliac.Crest			V.Sacral			R.Thigh.Upper.Post			R.Thigh.Lower.Ant			R.Thigh.Lower.Post			R.Thigh.Upper.Ant			R.Knee.Lat			R.Knee.Med			R.Shank.Upper.Post			R.Shank.Lower.Ant			R.Shank.Lower.Post			R.Shank.Upper.Ant			R.Ankle.Lat			R.Ankle.Med			R.Heel.Upper			R.Heel.Med			R.Heel.Lat			R.Toe.Lat			R.Toe.Med			R.Toe.Tip			L.Thigh.Upper.Post			L.Thigh.Lower.Ant			L.Thigh.Lower.Post			L.Thigh.Upper.Ant			L.Knee.Lat			L.Shank.Upper.Post			L.Shank.Lower.Ant			L.Shank.Lower.Post			L.Shank.Upper.Ant			L.Ankle.Lat			L.Ankle.Med			L.Heel.Upper			L.Heel.Med			L.Heel.Lat			L.Toe.Lat			L.Toe.Med			L.Toe.Tip			Cervical.Spine			Back			
		X1	Y1	Z1	X2	Y2	Z2	X3	Y3	Z3	X4	Y4	Z4	X5	Y5	Z5	X6	Y6	Z6	X7	Y7	Z7	X8	Y8	Z8	X9	Y9	Z9	X10	Y10	Z10	X11	Y11	Z11	X12	Y12	Z12	X13	Y13	Z13	X14	Y14	Z14	X15	Y15	Z15	X16	Y16	Z16	X17	Y17	Z17	X18	Y18	Z18	X19	Y19	Z19	X20	Y20	Z20	X21	Y21	Z21	X22	Y22	Z22	X23	Y23	Z23	X24	Y24	Z24	X25	Y25	Z25	X26	Y26	Z26	X27	Y27	Z27	X28	Y28	Z28	X29	Y29	Z29	X30	Y30	Z30	X31	Y31	Z31	X32	Y32	Z32	X33	Y33	Z33	X34	Y34	Z34	X35	Y35	Z35	X36	Y36	Z36	X37	Y37	Z37	X38	Y38	Z38	X39	Y39	Z39	X40	Y40	Z40	X41	Y41	Z41	X42	Y42	Z42	X43	Y43	Z43	X44	Y44	Z44	X45	Y45	Z45	X46	Y46	Z46	X47	Y47	Z47	X48	Y48	Z48	X49	Y49	Z49	X50	Y50	Z50	

69	0.28333	-474.99	1231.8	270.5	-560.36	1500.5	414.81	-573.47	1501.4	80.133	-569.95	1796.9	218.15	-559.35	975.79	408.72	-538.2	986.52	160.23	-753.66	1003.9	306.92	-745.03	1007.7	215.02	-648.83	897.59	465.76	-605.94	909.62	73.098	-647.61	1063.9	440.69	-625.65	1062.9	104.37	-765.31	971.65	271.83	-557.53	679.03	488.53	-491.9	612.28	447.58	-554.77	588.93	476.4	-499.41	701.11	457.52	-561.04	498.55	468.68	-550.42	474.64	338.08	-782.71	424.51	451.94	-808.74	338.32	445.67	-848.44	387.75	433.17	-741.9	374.86	462.41	-909.44	311.88	425.56	-874.89	309.72	339.67	-982.88	344.48	361.65	-1004.1	321.53	332.17	-1005.5	323.08	396.9	-942.29	173.07	451.93	-912.66	147.15	335.62	-867.49	101.42	384.75	-533.58	678.2	94.939	-439.36	632.63	131.13	-498.62	592.11	118.62	-466.26	716.76	107.96	-459.59	514.58	130.27	-524.02	314.73	134.86	-458.29	255.97	147.02	-528.85	243.45	155.13	-458.36	325.7	131.41	-506.48	114.39	169.07	-475.23	128.51	256.29	-566.04	65.532	224.37	-554.82	41.474	256.53	-565.83	38.624	195.77	-385.41	39.15	135.37	-357.79	49.975	253.71	-297.22	62.377	196.88	-623.17	1540.9	254.29	-744.52	1267.1	267.8
70	0.2875	-470.59	1233	269.99	-555.82	1501.6	414.44	-568.8	1502.6	79.756	-565.19	1798.1	218.29	-554.71	977.23	408.07	-534.11	987.55	159.59	-749.23	1004.9	306.76	-740.76	1008.8	214.85	-643.56	898.97	465.55	-602.15	910.42	72.725	-642.93	1065.3	440.22	-621.55	1063.9	103.92	-760.94	972.73	271.72	-549.02	681.6	488.12	-482.69	615.8	446.67	-544.99	591.52	476.01	-491.49	704.54	456.69	-550.05	501.01	468.09	-539.42	477.53	337.37	-771.28	426.11	451.1	-796.87	339.79	444.82	-836.82	389.06	432.35	-730.23	376.68	461.58	-897.37	312.8	424.67	-862.91	311.19	338.66	-971.49	344.92	360.99	-992.52	321.79	331.45	-993.79	323.17	396.23	-928.71	173.73	450.58	-899	148.58	334.16	-853.06	103.41	383.23	-531.05	678.6	94.647	-437.02	632.45	130.64	-496.57	592.29	118.29	-463.45	716.74	107.47	-457.97	514.5	129.93	-523.17	314.84	134.58	-457.64	255.86	146.81	-528.24	243.59	154.92	-457.48	325.6	131.13	-506.34	114.46	169.01	-475.04	128.57	256.21	-566	65.584	224.35	-554.8	41.542	256.52	-565.82	38.675	195.77	-385.39	39.07	135.33	-357.76	49.938	253.67	-297.17	62.229	196.83	-618.5	1542.1	253.89	-740	1268.3	267.29
71	0.29167	-466.21	1234.2	269.49	-551.31	1502.8	414.08	-564.16	1503.8	79.391	-560.46	1799.3	218.45	-550.08	978.68	407.43	-530.03	988.57	158.97	-744.81	1006	306.62	-736.51	1009.9	214.7	-638.32	900.37	465.36	-598.42	911.23	72.368	-638.27	1066.7	439.76	-617.46	1064.9	103.48	-756.58	973.82	271.63	-540.53	684.26	487.7	-473.53	619.42	445.73	-535.22	594.22	475.59	-483.62	708.04	455.82	-539.12	503.57	467.49	-528.48	480.52	336.65	-759.88	427.65	450.23	-784.95	341.19	443.93	-825.2	390.26	431.49	-718.55	378.46	460.73	-885.24	313.56	423.74	-850.86	312.54	337.61	-960.03	345.14	360.28	-980.83	321.85	330.69	-982	323.05	395.5	-915.01	174.2	449.14	-885.19	149.87	332.62	-838.44	105.3	381.65	-528.59	678.99	94.353	-434.75	632.26	130.13	-494.6	592.48	117.94	-460.7	716.72	106.95	-456.43	514.43	129.58	-522.37	314.95	134.31	-457.04	255.76	146.58	-527.68	243.74	154.71	-456.65	325.5	130.82	-506.2	114.53	168.95	-474.85	128.63	256.11	-565.98	65.65	224.33	-554.78	41.612	256.5	-565.82	38.723	195.76	-385.37	38.982	135.28	-357.73	49.909	253.64	-297.11	62.082	196.77	-613.85	1543.3	253.5	-735.51	1269.6	266.78
72	0.29583	-461.84	1235.3	269.02	-546.82	1503.9	413.73	-559.53	1505	79.038	-555.74	1800.5	218.62	-545.47	980.13	406.81	-525.97	989.59	158.36	-740.41	1007.1	306.49	-732.28	1011	214.56	-633.08	901.8	465.18	-594.73	912.05	72.026	-633.62	1068.1	439.32	-613.39	1065.9	103.05	-752.24	974.91	271.55	-532.05	687.01	487.27	-464.42	623.12	444.76	-525.48	597.03	475.17	-475.78	711.61	454.92	-528.23	506.21	466.87	-517.62	483.62	335.92	-748.52	429.12	449.34	-773	342.5	443.01	-813.58	391.34	430.59	-706.86	380.2	459.85	-873.06	314.17	422.77	-838.75	313.75	336.52	-948.51	345.16	359.54	-969.05	321.7	329.87	-970.14	322.7	394.73	-901.19	174.48	447.62	-871.22	151.03	330.99	-823.65	107.07	380.01	-526.2	679.39	94.058	-432.55	632.07	129.58	-492.7	592.67	117.59	-458.02	716.69	106.41	-454.97	514.35	129.2	-521.63	315.06	134.04	-456.49	255.67	146.33	-527.15	243.9	154.5	-455.88	325.4	130.49	-506.08	114.59	168.88	-474.67	128.7	256	-565.99	65.728	224.32	-554.76	41.684	256.48	-565.81	38.77	195.76	-385.35	38.887	135.23	-357.7	49.888	253.6	-297.06	61.937	196.7	-609.22	1544.4	253.12	-731.02	1270.8	266.28
